<svg xmlns="http://www.w3.org/2000/svg" viewBox="0 0 800 1000">
    <!-- Background -->
    <rect width="800" height="1000" fill="#f5f5f5"/>
    
    <!-- Navigation Bar -->
    <rect x="0" y="0" width="800" height="70" fill="#ffffff" stroke="#cccccc"/>
    <rect x="30" y="15" width="120" height="40" fill="#dddddd"/>
    <text x="55" y="42" font-family="Arial" font-size="16" fill="#666666">LOGO</text>
    
    <!-- Navigation Links -->
    <text x="400" y="42" font-family="Arial" font-size="14" fill="#333333" text-anchor="middle">Home</text>
    <text x="480" y="42" font-family="Arial" font-size="14" fill="#333333" text-anchor="middle">Features</text>
    <text x="560" y="42" font-family="Arial" font-size="14" fill="#333333" text-anchor="middle">Products</text>
    <text x="640" y="42" font-family="Arial" font-size="14" fill="#333333" text-anchor="middle">About</text>
    <text x="720" y="42" font-family="Arial" font-size="14" fill="#666666" font-weight="bold" text-anchor="middle">Contact</text>
    
    <!-- Page Header -->
    <rect x="0" y="70" width="800" height="150" fill="#4CAF50" opacity="0.1"/>
    <text x="400" y="150" font-family="Arial" font-size="36" font-weight="bold" fill="#333333" text-anchor="middle">Contact Us</text>
    <text x="400" y="190" font-family="Arial" font-size="16" fill="#666666" text-anchor="middle">Get in touch with our team</text>
    
    <!-- Contact Information Section -->
    <rect x="50" y="270" width="300" height="300" fill="#ffffff" stroke="#cccccc" rx="5"/>
    
    <!-- Location Info -->
    <circle cx="100" cy="320" r="20" fill="#4CAF50" opacity="0.1"/>
    <text x="150" y="310" font-family="Arial" font-size="18" font-weight="bold" fill="#333333">Location</text>
    <text x="150" y="330" font-family="Arial" font-size="14" fill="#666666">123 Security Street</text>
    <text x="150" y="350" font-family="Arial" font-size="14" fill="#666666">Tech City, TC 12345</text>
    
    <!-- Phone Info -->
    <circle cx="100" cy="420" r="20" fill="#4CAF50" opacity="0.1"/>
    <text x="150" y="410" font-family="Arial" font-size="18" font-weight="bold" fill="#333333">Phone</text>
    <text x="150" y="430" font-family="Arial" font-size="14" fill="#666666">+1 (555) 123-4567</text>
    
    <!-- Email Info -->
    <circle cx="100" cy="520" r="20" fill="#4CAF50" opacity="0.1"/>
    <text x="150" y="510" font-family="Arial" font-size="18" font-weight="bold" fill="#333333">Email</text>
    <text x="150" y="530" font-family="Arial" font-size="14" fill="#666666">contact@company.com</text>
    
    <!-- Contact Form -->
    <rect x="400" y="270" width="350" height="500" fill="#ffffff" stroke="#cccccc" rx="5"/>
    <text x="450" y="310" font-family="Arial" font-size="24" font-weight="bold" fill="#333333">Send us a message</text>
    
    <!-- Name Input -->
    <text x="450" y="360" font-family="Arial" font-size="14" fill="#666666">Name</text>
    <rect x="450" y="370" width="250" height="40" fill="#f5f5f5" stroke="#cccccc" rx="5"/>
    
    <!-- Email Input -->
    <text x="450" y="440" font-family="Arial" font-size="14" fill="#666666">Email</text>
    <rect x="450" y="450" width="250" height="40" fill="#f5f5f5" stroke="#cccccc" rx="5"/>
    
    <!-- Subject Input -->
    <text x="450" y="520" font-family="Arial" font-size="14" fill="#666666">Subject</text>
    <rect x="450" y="530" width="250" height="40" fill="#f5f5f5" stroke="#cccccc" rx="5"/>
    
    <!-- Message Input -->
    <text x="450" y="600" font-family="Arial" font-size="14" fill="#666666">Message</text>
    <rect x="450" y="610" width="250" height="100" fill="#f5f5f5" stroke="#cccccc" rx="5"/>
    
    <!-- Submit Button -->
    <rect x="450" y="740" width="250" height="50" rx="25" fill="#4CAF50"/>
    <text x="575" y="772" font-family="Arial" font-size="16" fill="white" text-anchor="middle">Send Message</text>
    
    <!-- Map Placeholder -->
    <rect x="50" y="600" width="300" height="170" fill="#ffffff" stroke="#cccccc" rx="5"/>
    <text x="200" y="685" font-family="Arial" font-size="14" fill="#666666" text-anchor="middle">Map View</text>
</svg>