<svg viewBox="0 0 800 600" xmlns="http://www.w3.org/2000/svg">
  <!-- Header Background -->
  <rect x="0" y="0" width="800" height="80" fill="#f0f0f0"/>
  
  <!-- Logo Area -->
  <rect x="20" y="20" width="120" height="40" fill="#d0d0d0"/>
  <text x="45" y="45" font-family="Arial" font-size="16">LOGO</text>
  
  <!-- Navigation Menu -->
  <rect x="320" y="30" width="400" height="20" fill="transparent"/>
  <text x="340" y="45" font-family="Arial" font-size="14">Home</text>
  <text x="420" y="45" font-family="Arial" font-size="14">Features</text>
  <text x="520" y="45" font-family="Arial" font-size="14">Products</text>
  <text x="620" y="45" font-family="Arial" font-size="14">About</text>
  <text x="720" y="45" font-family="Arial" font-size="14">Contact</text>
  
  <!-- Hero Section -->
  <rect x="0" y="80" width="800" height="300" fill="#e6e6e6"/>
  <rect x="50" y="130" width="350" height="200" fill="transparent"/>
  <text x="50" y="160" font-family="Arial" font-size="32" font-weight="bold">Protect Your Digital Life</text>
  <text x="50" y="200" font-family="Arial" font-size="16">Complete protection against viruses, malware, and cyber threats</text>
  
  <!-- CTA Button -->
  <rect x="50" y="250" width="200" height="40" rx="20" fill="#404040"/>
  <text x="85" y="275" font-family="Arial" font-size="16" fill="white">Download Now</text>

  <!-- CTA Button -->
  <rect x="300" y="250" width="200" height="40" rx="20" fill="none" stroke="#404040" stroke-width="1"/>
  <text x="360" y="275" font-family="Arial" font-size="16" fill="#404040">Learn More</text>

  
  
  <!-- Features Section -->
  <rect x="0" y="380" width="800" height="220" fill="#ffffff"/>
  
  <!-- Feature Boxes -->
  <rect x="50" y="400" width="200" height="180" fill="#f5f5f5"/>
  <text x="70" y="450" font-family="Arial" font-size="16">Antivirus Protection</text>
  
  <rect x="300" y="400" width="200" height="180" fill="#f5f5f5"/>
  <text x="320" y="450" font-family="Arial" font-size="16">Secure VPN</text>
  
  <rect x="550" y="400" width="200" height="180" fill="#f5f5f5"/>
  <text x="570" y="450" font-family="Arial" font-size="16">System Optimizer</text>
</svg>



